<svg height="512pt" viewBox="0 0 512 512" width="512pt" xmlns="http://www.w3.org/2000/svg"><path d="m319.566406 0-319.566406 319.566406 67.449219 67.449219 9.605469-4.65625c15.074218-7.3125 33.160156-4.265625 45.003906 7.578125 11.847656 11.847656 14.894531 29.933594 7.582031 45.007812l-4.660156 9.605469 67.449219 67.449219 319.570312-319.566406zm62.949219 237.003906 21.214844-21.210937 21.230469 21.230469-21.214844 21.214843zm-42.917969-42.914062 21.214844-21.214844 21.230469 21.230469-21.210938 21.214843zm-10.632812 53.074218-121.769532 121.773438-21.210937-21.214844 121.769531-121.769531zm-32.285156-95.996093 21.214843-21.210938 21.230469 21.230469-21.214844 21.214844zm-10.632813 53.078125-121.769531 121.769531-21.214844-21.210937 121.773438-121.769532zm-11.050781-74.765625-21.234375-21.230469 21.214843-21.214844 21.230469 21.234375zm0 0"/></svg>